<svg xmlns="http://www.w3.org/2000/svg" width="107" height="105" viewBox="0 0 107 105">
  <path id="Icon_awesome-researchgate" data-name="Icon awesome-researchgate" d="M0,2.25v105H107V2.25ZM62.624,80.625A11.531,11.531,0,0,1,50.682,77.3,97.612,97.612,0,0,1,40.6,62.391c-2.126,0-3.511,0-5.111-.141V73.125c0,5.508,1.433,4.969,6.162,5.6v1.9c-1.648-.07-5.517-.187-8.5-.187-3.129,0-6.234.141-8.025.188v-1.9c3.7-.68,5.254-.3,5.254-5.6V47.484c0-5.3-1.529-4.922-5.254-5.6v-1.9c6.162.234,12.682-.141,16.934-.141,7.571,0,13.351,3.375,13.351,10.687,0,4.945-3.989,9.891-9.362,11.133a78.228,78.228,0,0,0,10.079,13.8c1.72,1.828,4.108,3.445,6.5,3.445Zm5.469-31.641c-5.565,0-7.691-3.68-7.691-7.547V33.891c0-2.859,2.1-7.125,8.121-7.125s7.261,4.2,7.261,4.2l-2.556,1.688a5.293,5.293,0,0,0-4.705-2.93,4.883,4.883,0,0,0-4.705,4.617v6.281c0,3.141,1.576,5.461,4.275,5.461,3.368,0,5.135-2.555,5.135-6.281H68.953V37.289h7.261C76.214,42.094,77.336,48.984,68.093,48.984ZM40.268,59.461c-2.245,0-3.248-.07-4.777-.187V42.938c1.529-.141,3.583-.141,5.374-.141,5.565,0,8.885,2.859,8.885,8.086,0,5.133-3.583,8.578-9.482,8.578Z" transform="translate(0 -2.25)" fill="#fafafa"/>
</svg>
